<?xml version="1.0" standalone="no"?>
<!DOCTYPE svg PUBLIC "-//W3C//DTD SVG 20010904//EN"
 "http://www.w3.org/TR/2001/REC-SVG-20010904/DTD/svg10.dtd">
<svg version="1.0" xmlns="http://www.w3.org/2000/svg"
 width="1080.000000pt" height="1080.000000pt" viewBox="0 0 1080.000000 1080.000000"
 preserveAspectRatio="xMidYMid meet">
<metadata>
Created by potrace 1.16, written by Peter Selinger 2001-2019
</metadata>
<g transform="translate(0.000000,1080.000000) scale(0.100000,-0.100000)"
fill="#204C57" stroke="none">
<path d="M1880 9102 c-14 -2 -79 -17 -145 -34 -66 -16 -129 -31 -140 -33 -11
-1 -36 -9 -56 -18 -31 -12 -43 -30 -98 -138 -47 -93 -61 -129 -56 -148 4 -14
31 -92 61 -174 56 -147 68 -169 200 -353 115 -161 306 -433 369 -524 33 -47
63 -89 67 -95 4 -5 18 -23 31 -40 13 -16 43 -59 68 -95 24 -36 47 -67 50 -70
3 -3 20 -27 39 -55 43 -64 182 -260 280 -395 42 -58 89 -123 103 -145 15 -22
60 -87 101 -145 42 -58 95 -134 120 -170 61 -89 114 -164 169 -238 53 -72 89
-145 155 -312 17 -41 42 -104 56 -139 26 -64 26 -68 26 -321 l0 -255 -30 -78
c-16 -42 -39 -97 -50 -122 -11 -24 -20 -46 -20 -50 0 -3 -8 -24 -19 -48 -10
-23 -27 -62 -37 -87 -10 -25 -39 -74 -64 -109 -25 -35 -58 -82 -75 -106 -16
-23 -70 -99 -120 -169 -49 -70 -117 -165 -150 -211 -33 -47 -84 -120 -114
-162 -30 -43 -78 -112 -108 -153 -29 -41 -98 -138 -153 -215 -55 -77 -126
-176 -158 -220 -32 -44 -76 -107 -97 -140 -22 -33 -42 -62 -45 -65 -4 -3 -27
-34 -51 -70 -40 -58 -218 -310 -414 -585 -50 -70 -81 -127 -104 -190 -18 -49
-47 -127 -64 -173 l-31 -84 52 -101 c29 -56 53 -106 53 -112 3 -20 48 -52 90
-63 24 -7 103 -27 175 -46 l131 -33 2804 2 c1831 2 2821 6 2854 13 71 14 314
60 354 67 45 8 73 20 226 101 72 38 150 78 175 89 25 11 47 22 50 26 3 3 24
15 47 25 61 27 379 336 462 449 78 106 196 271 231 325 14 21 50 73 80 115
107 148 155 216 188 263 37 54 257 362 269 377 5 6 30 42 56 80 26 39 76 111
112 160 35 50 91 128 124 175 66 94 306 432 412 580 55 78 84 135 159 315 l92
220 0 264 c0 274 1 261 -43 366 -4 11 -31 76 -59 145 -61 151 -93 216 -122
252 -31 37 -79 106 -78 113 0 3 -8 14 -17 24 -10 10 -28 34 -41 52 -13 19
-118 167 -233 329 -115 162 -215 303 -221 314 -7 10 -45 62 -84 115 -38 53
-88 123 -109 156 -22 33 -58 85 -81 115 -37 49 -377 528 -407 573 -6 11 -29
42 -50 70 -21 29 -81 114 -134 189 -81 117 -121 162 -275 310 -172 166 -184
175 -301 237 -282 147 -394 201 -427 205 -52 7 -362 65 -385 73 -20 6 -5576
11 -5625 5z"/>
</g>
</svg>
